{
  "header": {
    "title": "Běží liška k táboru",
    "img": "liska.png",
    "format": 1,
    "numTracks": 1,
    "ticksPerBeat": 480
  },
  "tracks": [
    {
      "events": [
        {
          "duration": 0.3,
          "durationTicks": 144,
          "midi": 55,
          "note": "C4",
          "ticks": 0,
          "time": 4.0,
          "velocity": 0.7
        },
        {
          "duration": 0.3,
          "durationTicks": 144,
          "midi": 57,
          "note": "E4",
          "ticks": 144,
          "time": 5.5,
          "velocity": 0.7
        },
        {
          "duration": 0.3,
          "durationTicks": 144,
          "midi": 59,
          "note": "C4",
          "ticks": 288,
          "time": 7.0,
          "velocity": 0.7
        },
        {
          "duration": 0.3,
          "durationTicks": 144,
          "midi": 57,
          "note": "E4",
          "ticks": 432,
          "time": 8.5,
          "velocity": 0.7
        },
        {
          "duration": 0.6,
          "durationTicks": 288,
          "midi": 55,
          "note": "G4",
          "ticks": 576,
          "time": 10.0,
          "velocity": 0.7
        },
        {
          "duration": 0.3,
          "durationTicks": 144,
          "midi": 55,
          "note": "G4",
          "ticks": 720,
          "time": 12.15,
          "velocity": 0.7
        },
        {
          "duration": 0.3,
          "durationTicks": 144,
          "midi": 57,
          "note": "G4",
          "ticks": 864,
          "time": 13.65,
          "velocity": 0.7
        },
        {
          "duration": 0.3,
          "durationTicks": 144,
          "midi": 59,
          "note": "C4",
          "ticks": 1008,
          "time": 15.15,
          "velocity": 0.7
        },
        {
          "duration": 0.3,
          "durationTicks": 144,
          "midi": 55,
          "note": "E4",
          "ticks": 1152,
          "time": 16.65,
          "velocity": 0.7
        },
        {
          "duration": 0.6,
          "durationTicks": 288,
          "midi": 55,
          "note": "C4",
          "ticks": 1296,
          "time": 18.15,
          "velocity": 0.7
        },
        {
          "duration": 0.6,
          "durationTicks": 288,
          "midi": 55,
          "note": "E4",
          "ticks": 1296,
          "time": 19.63,
          "velocity": 0.7
        },
        {
          "duration": 0.6,
          "durationTicks": 288,
          "midi": 55,
          "note": "D4",
          "ticks": 1296,
          "time": 21.13,
          "velocity": 0.7
        },
        {
          "duration": 0.3,
          "durationTicks": 144,
          "midi": 55,
          "note": "D4",
          "ticks": 0,
          "time": 23.29,
          "velocity": 0.7
        },
        {
          "duration": 0.3,
          "durationTicks": 144,
          "midi": 57,
          "note": "D4",
          "ticks": 144,
          "time": 24.79,
          "velocity": 0.7
        },
        {
          "duration": 0.3,
          "durationTicks": 144,
          "midi": 59,
          "note": "C4",
          "ticks": 288,
          "time": 26.29,
          "velocity": 0.7
        },
        {
          "duration": 0.3,
          "durationTicks": 144,
          "midi": 57,
          "note": "E4",
          "ticks": 432,
          "time": 27.79,
          "velocity": 0.7
        },
        {
          "duration": 0.6,
          "durationTicks": 288,
          "midi": 55,
          "note": "G4",
          "ticks": 576,
          "time": 29.29,
          "velocity": 0.7
        },
        {
          "duration": 0.3,
          "durationTicks": 144,
          "midi": 55,
          "note": "E4",
          "ticks": 720,
          "time": 30.79,
          "velocity": 0.7
        },
        {
          "duration": 0.3,
          "durationTicks": 144,
          "midi": 57,
          "note": "D4",
          "ticks": 864,
          "time": 32.29,
          "velocity": 0.7
        },
        {
          "duration": 0.3,
          "durationTicks": 144,
          "midi": 59,
          "note": "D4",
          "ticks": 1008,
          "time": 33.79,
          "velocity": 0.7
        },
        {
          "duration": 0.3,
          "durationTicks": 144,
          "midi": 55,
          "note": "E4",
          "ticks": 1152,
          "time": 35.29,
          "velocity": 0.7
        },
        {
          "duration": 0.6,
          "durationTicks": 288,
          "midi": 55,
          "note": "C4",
          "ticks": 1296,
          "time": 37.44,
          "velocity": 0.7
        },
        {
          "duration": 0.6,
          "durationTicks": 288,
          "midi": 55,
          "note": "E4",
          "ticks": 1296,
          "time": 38.94,
          "velocity": 0.7
        },
        {
          "duration": 0.6,
          "durationTicks": 288,
          "midi": 55,
          "note": "G4",
          "ticks": 1296,
          "time": 40.44,
          "velocity": 0.7
        },
        {
          "duration": 0.6,
          "durationTicks": 288,
          "midi": 55,
          "note": "E4",
          "ticks": 1296,
          "time": 41.94,
          "velocity": 0.7
        },
        {
          "duration": 0.6,
          "durationTicks": 288,
          "midi": 55,
          "note": "D4",
          "ticks": 576,
          "time": 43.44,
          "velocity": 0.7
        },
        {
          "duration": 0.3,
          "durationTicks": 144,
          "midi": 55,
          "note": "D4",
          "ticks": 720,
          "time": 45.59,
          "velocity": 0.7
        },
        {
          "duration": 0.3,
          "durationTicks": 144,
          "midi": 57,
          "note": "C4",
          "ticks": 864,
          "time": 47.09,
          "velocity": 0.7
        }
      ]
    }
  ]
}
