{
  "header": {
    "title": "Hodně štěstí zdraví",
    "img": "birthday.webp",
    "starImg": "1star.webp",
    "stars": "1-star",
    "mode": "normal",
    "format": 1,
    "numTracks": 1,
    "ticksPerBeat": 480
  },
  "tracks": [
    {
      "events": [
        {
          "duration": 0.3,
          "durationTicks": 144,
          "midi": 55,
          "note": "C4",
          "ticks": 0,
          "time": 4.0,
          "velocity": 0.7
        },
        {
          "duration": 0.3,
          "durationTicks": 144,
          "midi": 57,
          "note": "C4",
          "ticks": 144,
          "time": 5.5,
          "velocity": 0.7
        },
        {
          "duration": 0.3,
          "durationTicks": 144,
          "midi": 59,
          "note": "D4",
          "ticks": 288,
          "time": 7.0,
          "velocity": 0.7
        },
        {
          "duration": 0.3,
          "durationTicks": 144,
          "midi": 57,
          "note": "C4",
          "ticks": 432,
          "time": 10.0,
          "velocity": 0.7
        },
        {
          "duration": 0.6,
          "durationTicks": 288,
          "midi": 55,
          "note": "F4",
          "ticks": 576,
          "time": 13.0,
          "velocity": 0.7
        },
        {
          "duration": 0.3,
          "durationTicks": 144,
          "midi": 55,
          "note": "E4",
          "ticks": 720,
          "time": 16.0,
          "velocity": 0.7
        },
        {
          "duration": 0.3,
          "durationTicks": 144,
          "midi": 57,
          "note": "C4",
          "ticks": 864,
          "time": 22.0,
          "velocity": 0.7
        },
        {
          "duration": 0.3,
          "durationTicks": 144,
          "midi": 59,
          "note": "C4",
          "ticks": 1008,
          "time": 23.5,
          "velocity": 0.7
        },
        {
          "duration": 0.3,
          "durationTicks": 144,
          "midi": 55,
          "note": "D4",
          "ticks": 1152,
          "time": 25.0,
          "velocity": 0.7
        },
        {
          "duration": 0.6,
          "durationTicks": 288,
          "midi": 55,
          "note": "C4",
          "ticks": 1296,
          "time": 28.0,
          "velocity": 0.7
        },
        {
          "duration": 0.6,
          "durationTicks": 288,
          "midi": 55,
          "note": "G4",
          "ticks": 1296,
          "time": 31.0,
          "velocity": 0.7
        },
        {
          "duration": 0.6,
          "durationTicks": 288,
          "midi": 55,
          "note": "F4",
          "ticks": 1296,
          "time": 34.0,
          "velocity": 0.7
        },
        {
          "duration": 0.3,
          "durationTicks": 144,
          "midi": 55,
          "note": "C4",
          "ticks": 0,
          "time": 40.0,
          "velocity": 0.7
        },
        {
          "duration": 0.3,
          "durationTicks": 144,
          "midi": 57,
          "note": "C4",
          "ticks": 144,
          "time": 41.5,
          "velocity": 0.7
        },
        {
          "duration": 0.3,
          "durationTicks": 144,
          "midi": 59,
          "note": "C5",
          "ticks": 288,
          "time": 43.0,
          "velocity": 0.7
        },
        {
          "duration": 0.3,
          "durationTicks": 144,
          "midi": 57,
          "note": "A4",
          "ticks": 432,
          "time": 46.0,
          "velocity": 0.7
        },
        {
          "duration": 0.6,
          "durationTicks": 288,
          "midi": 55,
          "note": "F4",
          "ticks": 576,
          "time": 49.0,
          "velocity": 0.7
        },
        {
          "duration": 0.3,
          "durationTicks": 144,
          "midi": 55,
          "note": "F4",
          "ticks": 720,
          "time": 50.5,
          "velocity": 0.7
        },
        {
          "duration": 0.3,
          "durationTicks": 144,
          "midi": 57,
          "note": "E4",
          "ticks": 864,
          "time": 52.0,
          "velocity": 0.7
        },
        {
          "duration": 0.3,
          "durationTicks": 144,
          "midi": 59,
          "note": "D4",
          "ticks": 1008,
          "time": 55.0,
          "velocity": 0.7
        },
        {
          "duration": 0.3,
          "durationTicks": 144,
          "midi": 55,
          "note": "ASharp4",
          "ticks": 1152,
          "time": 58.0,
          "velocity": 0.7
        },
        {
          "duration": 0.6,
          "durationTicks": 288,
          "midi": 55,
          "note": "ASharp4",
          "ticks": 1296,
          "time": 59.5,
          "velocity": 0.7
        },
        {
          "duration": 0.6,
          "durationTicks": 288,
          "midi": 55,
          "note": "A4",
          "ticks": 1296,
          "time": 61.0,
          "velocity": 0.7
        },
        {
          "duration": 0.6,
          "durationTicks": 288,
          "midi": 55,
          "note": "F4",
          "ticks": 1296,
          "time": 64.0,
          "velocity": 0.7
        },
        {
          "duration": 0.6,
          "durationTicks": 288,
          "midi": 55,
          "note": "G4",
          "ticks": 1296,
          "time": 67.0,
          "velocity": 0.7
        },
        {
          "duration": 0.6,
          "durationTicks": 288,
          "midi": 55,
          "note": "F4",
          "ticks": 576,
          "time": 70.0,
          "velocity": 0.7
        }
      ]
    }
  ]
}
