{
  "header": {
    "title": "Kočka leze dírou",
    "img": "kockalezedirou.webp",
    "mode": "normal",
    "format": 1,
    "numTracks": 1,
    "ticksPerBeat": 480
  },

  "tracks": [
    {
      "events": [
        {
          "duration": 0.3,
          "durationTicks": 144,
          "midi": 55,
          "note": "C4",
          "ticks": 0,
          "time": 4.0,
          "velocity": 0.7
        },
        {
          "duration": 0.3,
          "durationTicks": 144,
          "midi": 57,
          "note": "D4",
          "ticks": 144,
          "time": 5.2,
          "velocity": 0.7
        },
        {
          "duration": 0.3,
          "durationTicks": 144,
          "midi": 59,
          "note": "E4",
          "ticks": 288,
          "time": 6.4,
          "velocity": 0.7
        },
        {
          "duration": 0.3,
          "durationTicks": 144,
          "midi": 57,
          "note": "F4",
          "ticks": 432,
          "time": 7.6,
          "velocity": 0.7
        },
        {
          "duration": 0.6,
          "durationTicks": 288,
          "midi": 55,
          "note": "G4",
          "ticks": 576,
          "time": 8.8,
          "velocity": 0.7
        },
        {
          "duration": 0.3,
          "durationTicks": 144,
          "midi": 55,
          "note": "G4",
          "ticks": 720,
          "time": 11.2,
          "velocity": 0.7
        },
        {
          "duration": 0.3,
          "durationTicks": 144,
          "midi": 57,
          "note": "A4",
          "ticks": 864,
          "time": 13.6,
          "velocity": 0.7
        },
        {
          "duration": 0.3,
          "durationTicks": 144,
          "midi": 59,
          "note": "A4",
          "ticks": 1008,
          "time": 16.0,
          "velocity": 0.7
        },
        {
          "duration": 0.3,
          "durationTicks": 144,
          "midi": 55,
          "note": "G4",
          "ticks": 1152,
          "time": 18.4,
          "velocity": 0.7
        },
        {
          "duration": 0.6,
          "durationTicks": 288,
          "midi": 55,
          "note": "A4",
          "ticks": 1296,
          "time": 23.2,
          "velocity": 0.7
        },
        {
          "duration": 0.6,
          "durationTicks": 288,
          "midi": 55,
          "note": "A4",
          "ticks": 1296,
          "time": 25.6,
          "velocity": 0.7
        },
        {
          "duration": 0.6,
          "durationTicks": 288,
          "midi": 55,
          "note": "G4",
          "ticks": 1296,
          "time": 28.0,
          "velocity": 0.7
        },
        {
          "duration": 0.3,
          "durationTicks": 144,
          "midi": 55,
          "note": "F4",
          "ticks": 0,
          "time": 32.8,
          "velocity": 0.7
        },
        {
          "duration": 0.3,
          "durationTicks": 144,
          "midi": 57,
          "note": "F4",
          "ticks": 144,
          "time": 34.0,
          "velocity": 0.7
        },
        {
          "duration": 0.3,
          "durationTicks": 144,
          "midi": 59,
          "note": "F4",
          "ticks": 288,
          "time": 35.2,
          "velocity": 0.7
        },
        {
          "duration": 0.3,
          "durationTicks": 144,
          "midi": 57,
          "note": "F4",
          "ticks": 432,
          "time": 36.4,
          "velocity": 0.7
        },
        {
          "duration": 0.6,
          "durationTicks": 288,
          "midi": 55,
          "note": "E4",
          "ticks": 576,
          "time": 37.6,
          "velocity": 0.7
        },
        {
          "duration": 0.3,
          "durationTicks": 144,
          "midi": 55,
          "note": "E4",
          "ticks": 720,
          "time": 40.0,
          "velocity": 0.7
        },
        {
          "duration": 0.3,
          "durationTicks": 144,
          "midi": 57,
          "note": "D4",
          "ticks": 864,
          "time": 42.4,
          "velocity": 0.7
        },
        {
          "duration": 0.3,
          "durationTicks": 144,
          "midi": 59,
          "note": "D4",
          "ticks": 1008,
          "time": 44.8,
          "velocity": 0.7
        },
        {
          "duration": 0.3,
          "durationTicks": 144,
          "midi": 55,
          "note": "G4",
          "ticks": 1152,
          "time": 47.2,
          "velocity": 0.7
        },
        {
          "duration": 0.6,
          "durationTicks": 288,
          "midi": 55,
          "note": "F4",
          "ticks": 1296,
          "time": 52.0,
          "velocity": 0.7
        },
        {
          "duration": 0.6,
          "durationTicks": 288,
          "midi": 55,
          "note": "F4",
          "ticks": 1296,
          "time": 53.2,
          "velocity": 0.7
        },
        {
          "duration": 0.6,
          "durationTicks": 288,
          "midi": 55,
          "note": "F4",
          "ticks": 1296,
          "time": 54.4,
          "velocity": 0.7
        },
        {
          "duration": 0.6,
          "durationTicks": 288,
          "midi": 55,
          "note": "F4",
          "ticks": 1296,
          "time": 55.6,
          "velocity": 0.7
        },
        {
          "duration": 0.6,
          "durationTicks": 288,
          "midi": 55,
          "note": "E4",
          "ticks": 576,
          "time": 56.8,
          "velocity": 0.7
        },
        {
          "duration": 0.3,
          "durationTicks": 144,
          "midi": 55,
          "note": "E4",
          "ticks": 720,
          "time": 59.2,
          "velocity": 0.7
        },
        {
          "duration": 0.3,
          "durationTicks": 144,
          "midi": 57,
          "note": "D4",
          "ticks": 864,
          "time": 61.6,
          "velocity": 0.7
        },
        {
          "duration": 0.3,
          "durationTicks": 144,
          "midi": 59,
          "note": "D4",
          "ticks": 1008,
          "time": 64.0,
          "velocity": 0.7
        },
        {
          "duration": 0.3,
          "durationTicks": 144,
          "midi": 55,
          "note": "C4",
          "ticks": 1152,
          "time": 66.4,
          "velocity": 0.7
        }
      ]
    }
  ]
}
