{
  "header": {
    "title": "Ovčáci, čtveráci",
    "img": "ovcaci.webp",
    "mode": "normal",
    "format": 1,
    "numTracks": 1,
    "ticksPerBeat": 480
  },
  "tracks": [
    {
      "events": [
        {
          "duration": 0.3,
          "durationTicks": 144,
          "midi": 55,
          "note": "C4",
          "ticks": 0,
          "time": 4,
          "velocity": 0.7
        },
        {
          "duration": 0.3,
          "durationTicks": 144,
          "midi": 57,
          "note": "E4",
          "ticks": 144,
          "time": 5.56,
          "velocity": 0.7
        },
        {
          "duration": 0.3,
          "durationTicks": 144,
          "midi": 59,
          "note": "G4",
          "ticks": 288,
          "time": 7.12,
          "velocity": 0.7
        },
        {
          "duration": 0.3,
          "durationTicks": 144,
          "midi": 55,
          "note": "C4",
          "ticks": 432,
          "time": 10.24,
          "velocity": 0.7
        },
        {
          "duration": 0.3,
          "durationTicks": 144,
          "midi": 59,
          "note": "E4",
          "ticks": 576,
          "time": 11.8,
          "velocity": 0.7
        },
        {
          "duration": 0.3,
          "durationTicks": 144,
          "midi": 57,
          "note": "G4",
          "ticks": 720,
          "time": 13.36,
          "velocity": 0.7
        },
        {
          "duration": 0.2,
          "durationTicks": 288,
          "midi": 55,
          "note": "E4",
          "ticks": 864,
          "time": 16.48,
          "velocity": 0.7
        },
        {
          "duration": 0.2,
          "durationTicks": 144,
          "midi": 55,
          "note": "E4",
          "ticks": 1152,
          "time": 17.26,
          "velocity": 0.7
        },
        {
          "duration": 0.2,
          "durationTicks": 144,
          "midi": 57,
          "note": "D4",
          "ticks": 1296,
          "time": 18.04,
          "velocity": 0.7
        },
        {
          "duration": 0.2,
          "durationTicks": 144,
          "midi": 59,
          "note": "E4",
          "ticks": 1440,
          "time": 18.82,
          "velocity": 0.7
        },
        {
          "duration": 0.5,
          "durationTicks": 144,
          "midi": 55,
          "note": "F4",
          "ticks": 1584,
          "time": 19.6,
          "velocity": 0.7
        },
        {
          "duration": 0.5,
          "durationTicks": 288,
          "midi": 55,
          "note": "D4",
          "ticks": 1728,
          "time": 21.16,
          "velocity": 0.7
        },
        {
          "duration": 0.2,
          "durationTicks": 288,
          "midi": 55,
          "note": "E4",
          "ticks": 864,
          "time": 22.72,
          "velocity": 0.7
        },
        {
          "duration": 0.2,
          "durationTicks": 144,
          "midi": 55,
          "note": "E4",
          "ticks": 1152,
          "time": 23.5,
          "velocity": 0.7
        },
        {
          "duration": 0.2,
          "durationTicks": 144,
          "midi": 57,
          "note": "D4",
          "ticks": 1296,
          "time": 24.28,
          "velocity": 0.7
        },
        {
          "duration": 0.2,
          "durationTicks": 144,
          "midi": 59,
          "note": "E4",
          "ticks": 1440,
          "time": 25.06,
          "velocity": 0.7
        },
        {
          "duration": 0.5,
          "durationTicks": 144,
          "midi": 55,
          "note": "F4",
          "ticks": 1584,
          "time": 25.84,
          "velocity": 0.7
        },
        {
          "duration": 0.5,
          "durationTicks": 288,
          "midi": 55,
          "note": "D4",
          "ticks": 1728,
          "time": 27.4,
          "velocity": 0.7
        },
        {
          "duration": 0.3,
          "durationTicks": 144,
          "midi": 59,
          "note": "E4",
          "ticks": 1440,
          "time": 28.96,
          "velocity": 0.7
        },
        {
          "duration": 0.3,
          "durationTicks": 144,
          "midi": 55,
          "note": "D4",
          "ticks": 1584,
          "time": 30.52,
          "velocity": 0.7
        },
        {
          "duration": 0.3,
          "durationTicks": 288,
          "midi": 55,
          "note": "C4",
          "ticks": 1728,
          "time": 32.08,
          "velocity": 0.7
        }
      ]
    }
  ]
}
