{
  "header": {
    "title": "Tutorial - Všechny noty",
    "img": "trenink.webp",
    "mode": "tutorial",
    "format": 1,
    "numTracks": 1,
    "ticksPerBeat": 480
  },
  "tracks": [
    {
      "events": [
        {
          "duration": 0.3,
          "durationTicks": 144,
          "midi": 57,
          "note": "C4",
          "ticks": 144,
          "time": 4,
          "velocity": 0.7
        },
        {
          "duration": 0.3,
          "durationTicks": 144,
          "midi": 59,
          "note": "CSharp4",
          "ticks": 288,
          "time": 6,
          "velocity": 0.7
        },
        {
          "duration": 0.3,
          "durationTicks": 144,
          "midi": 55,
          "note": "D4",
          "ticks": 432,
          "time": 8,
          "velocity": 0.7
        },
        {
          "duration": 0.3,
          "durationTicks": 144,
          "midi": 59,
          "note": "DSharp4",
          "ticks": 576,
          "time": 10,
          "velocity": 0.7
        },
        {
          "duration": 0.3,
          "durationTicks": 144,
          "midi": 57,
          "note": "E4",
          "ticks": 720,
          "time": 12,
          "velocity": 0.7
        },
        {
          "duration": 0.6,
          "durationTicks": 288,
          "midi": 55,
          "note": "F4",
          "ticks": 864,
          "time": 14,
          "velocity": 0.7
        },
        {
          "duration": 0.3,
          "durationTicks": 144,
          "midi": 55,
          "note": "FSharp4",
          "ticks": 1152,
          "time": 16,
          "velocity": 0.7
        },
        {
          "duration": 0.3,
          "durationTicks": 144,
          "midi": 57,
          "note": "G4",
          "ticks": 1296,
          "time": 18,
          "velocity": 0.7
        },
        {
          "duration": 0.3,
          "durationTicks": 144,
          "midi": 59,
          "note": "GSharp4",
          "ticks": 1440,
          "time": 20,
          "velocity": 0.7
        },
        {
          "duration": 0.3,
          "durationTicks": 144,
          "midi": 55,
          "note": "A4",
          "ticks": 1584,
          "time": 22,
          "velocity": 0.7
        },
        {
          "duration": 0.3,
          "durationTicks": 144,
          "midi": 55,
          "note": "ASharp4",
          "ticks": 1584,
          "time": 24,
          "velocity": 0.7
        },
        {
          "duration": 0.3,
          "durationTicks": 144,
          "midi": 55,
          "note": "B4",
          "ticks": 1584,
          "time": 26,
          "velocity": 0.7
        },
        {
          "duration": 0.3,
          "durationTicks": 144,
          "midi": 55,
          "note": "C5",
          "ticks": 1584,
          "time": 28,
          "velocity": 0.7
        },
        {
          "duration": 0.3,
          "durationTicks": 144,
          "midi": 59,
          "note": "CSharp5",
          "ticks": 288,
          "time": 30,
          "velocity": 0.7
        },
        {
          "duration": 0.3,
          "durationTicks": 144,
          "midi": 55,
          "note": "D5",
          "ticks": 432,
          "time": 32,
          "velocity": 0.7
        },
        {
          "duration": 0.3,
          "durationTicks": 144,
          "midi": 59,
          "note": "DSharp5",
          "ticks": 576,
          "time": 34,
          "velocity": 0.7
        },
        {
          "duration": 0.3,
          "durationTicks": 144,
          "midi": 57,
          "note": "E5",
          "ticks": 720,
          "time": 36,
          "velocity": 0.7
        },
        {
          "duration": 0.6,
          "durationTicks": 288,
          "midi": 55,
          "note": "F5",
          "ticks": 864,
          "time": 38,
          "velocity": 0.7
        },
        {
          "duration": 0.3,
          "durationTicks": 144,
          "midi": 55,
          "note": "FSharp5",
          "ticks": 1152,
          "time": 40,
          "velocity": 0.7
        },
        {
          "duration": 0.3,
          "durationTicks": 144,
          "midi": 57,
          "note": "G5",
          "ticks": 1296,
          "time": 42,
          "velocity": 0.7
        },
        {
          "duration": 0.3,
          "durationTicks": 144,
          "midi": 59,
          "note": "GSharp5",
          "ticks": 1440,
          "time": 44,
          "velocity": 0.7
        },
        {
          "duration": 0.3,
          "durationTicks": 144,
          "midi": 55,
          "note": "A5",
          "ticks": 1584,
          "time": 46,
          "velocity": 0.7
        },
        {
          "duration": 0.3,
          "durationTicks": 144,
          "midi": 55,
          "note": "ASharp5",
          "ticks": 1584,
          "time": 48,
          "velocity": 0.7
        },
        {
          "duration": 0.3,
          "durationTicks": 144,
          "midi": 55,
          "note": "B5",
          "ticks": 1584,
          "time": 50,
          "velocity": 0.7
        },
        {
          "duration": 0.3,
          "durationTicks": 144,
          "midi": 55,
          "note": "C6",
          "ticks": 1584,
          "time": 52,
          "velocity": 0.7
        }
      ]
    }
  ]
}
