<svg width="29" height="33" viewBox="0 0 29 33" fill="none" xmlns="http://www.w3.org/2000/svg">
<path d="M28.25 21.75V2.50003C28.2488 2.23718 28.1884 1.97797 28.0733 1.74166C27.9581 1.50535 27.7913 1.29801 27.585 1.13503C27.3817 0.970572 27.1441 0.853763 26.8897 0.793195C26.6354 0.732626 26.3706 0.729838 26.115 0.785035L10.365 4.28504C9.9762 4.37272 9.62897 4.5905 9.38076 4.90236C9.13254 5.21422 8.99822 5.60146 9.00002 6.00004V20.595C7.80535 20.031 6.46001 19.8696 5.16583 20.135C3.87165 20.4004 2.69841 21.0782 1.82211 22.0669C0.945815 23.0555 0.413715 24.3017 0.305635 25.6184C0.197555 26.935 0.519322 28.2513 1.22267 29.3696C1.92601 30.4879 2.97301 31.348 4.20659 31.8209C5.44017 32.2937 6.79382 32.3539 8.06447 31.9922C9.33512 31.6306 10.4543 30.8667 11.254 29.8152C12.0537 28.7636 12.4909 27.4811 12.5 26.16C12.5181 25.857 12.5181 25.5531 12.5 25.25V7.40004L24.75 4.68754V17.095C23.5547 16.5307 22.2085 16.3694 20.9137 16.6354C19.6189 16.9013 18.4453 17.5802 17.5692 18.57C16.6931 19.5599 16.1618 20.8072 16.055 22.1248C15.9483 23.4423 16.2719 24.7589 16.9772 25.8769C17.6825 26.9948 18.7315 27.8538 19.9666 28.3247C21.2018 28.7956 22.5563 28.8532 23.8269 28.4886C25.0975 28.1241 26.2156 27.3571 27.0131 26.303C27.8107 25.2488 28.2447 23.9644 28.25 22.6425C28.2666 22.3453 28.2666 22.0473 28.25 21.75Z" fill="white"/>
</svg>
