<svg
    xmlns="http://www.w3.org/2000/svg"
    width="24"
    height="24"
    viewBox="0 0 32 24"
    fill="none"
  >
    <path
      d="M1.32325 19.3935C-2.20421 14.1509 1.57522 6.61472 9.63798 2.57357C17.7007 -1.46758 27.1493 -0.703029 30.6768 4.53953C34.2042 9.78209 30.4248 17.3183 22.362 21.4687C14.2993 25.5098 4.85071 24.636 1.32325 19.3935ZM29.417 5.19485C28.0312 3.01044 20.9762 4.21187 13.6694 7.92535C13.5434 7.92535 13.5434 8.03457 13.4174 8.03457C13.2914 8.03457 13.1654 8.1438 13.1654 8.1438C5.98454 11.8573 1.32325 16.5537 2.83503 18.6289C4.22082 20.8133 11.2757 19.6119 18.5826 15.8984C18.7086 15.8984 18.7086 15.7892 18.8346 15.7892L18.9606 15.68C26.1415 12.0757 30.8027 7.37926 29.417 5.19485Z"
      fill="currentColor"
    />
  </svg>
