<svg
    version="1.1"
    xmlns="http://www.w3.org/2000/svg"
    width="48"
    height="24"
    viewBox="0 0 48 24"
    style="fill-rule:evenodd;clip-rule:evenodd;stroke-linejoin:round;stroke-miterlimit:2;"
    fill="none"
  >
    <g transform="matrix(0.75,0,0,0.75,22.5041,3)">
        <path d="M1.323,19.394C-2.204,14.151 1.575,6.615 9.638,2.574C17.701,-1.468 27.149,-0.703 30.677,4.54C34.204,9.782 30.425,17.318 22.362,21.469C14.299,25.51 4.851,24.636 1.323,19.394ZM29.417,5.195C28.031,3.01 20.976,4.212 13.669,7.925C13.543,7.925 13.543,8.035 13.417,8.035C13.291,8.035 13.165,8.144 13.165,8.144C5.985,11.857 1.323,16.554 2.835,18.629C4.221,20.813 11.276,19.612 18.583,15.898C18.709,15.898 18.709,15.789 18.835,15.789L18.961,15.68C26.142,12.076 30.803,7.379 29.417,5.195Z" fillRule="nonzero" fill="currentColor"/>
    </g>
    <g transform="matrix(1,0,0,1,-1.50416,-2.25376e-07)">
        <path d="M9.006,2.89C9.067,2.341 9.562,1.945 10.11,2.006C10.659,2.067 11.055,2.562 10.994,3.11L8.994,21.11C8.933,21.659 8.438,22.055 7.89,21.994C7.341,21.933 6.945,21.438 7.006,20.89L9.006,2.89Z" fill="currentColor"/>
    </g>
    <g transform="matrix(1,0,0,1,-1.50416,-2.25376e-07)">
        <path d="M15.006,2.89C15.067,2.341 15.562,1.945 16.11,2.006C16.659,2.067 17.055,2.562 16.994,3.11L14.994,21.11C14.933,21.659 14.438,22.055 13.89,21.994C13.341,21.933 12.945,21.438 13.006,20.89L15.006,2.89Z" fill="currentColor"/>
    </g>
    <g transform="matrix(1,0,0,1,-1.50416,-2.25376e-07)">
        <path d="M4,9C3.448,9 3,8.552 3,8C3,7.448 3.448,7 4,7L20,7C20.552,7 21,7.448 21,8C21,8.552 20.552,9 20,9L4,9Z" fill="currentColor"/>
    </g>
    <g transform="matrix(1,0,0,1,-1.50416,-2.25376e-07)">
        <path d="M4,17C3.448,17 3,16.552 3,16C3,15.448 3.448,15 4,15L20,15C20.552,15 21,15.448 21,16C21,16.552 20.552,17 20,17L4,17Z" fill="currentColor"/>
    </g>

  </svg>
