<svg width="42" height="42" viewBox="0 0 42 42" fill="none" xmlns="http://www.w3.org/2000/svg">
<path d="M38.5 17.5V15.75C38.5 7 35 3.5 26.25 3.5H15.75C7 3.5 3.5 7 3.5 15.75V26.25C3.5 35 7 38.5 15.75 38.5H19.25" stroke="white" stroke-width="4" stroke-linecap="round" stroke-linejoin="round"/>
<rect x="27.5864" y="23" width="9.21677" height="9.35126" rx="1" stroke="white" stroke-width="2"/>
<path d="M26.987 23.5136L24.5833 25.4055" stroke="white" stroke-linecap="round" stroke-linejoin="round"/>
<path d="M37.5682 23.5134L39.4053 25.0269" stroke="white" stroke-linecap="round" stroke-linejoin="round"/>
<path d="M27.3873 32.9728L24.5832 36.0001" stroke="white" stroke-linecap="round"/>
<path d="M39.4053 36L37.0017 32.973" stroke="white" stroke-linecap="round"/>
<path d="M24.5835 25.4053V35.9998" stroke="white" stroke-linecap="round"/>
<path d="M39.4053 25.0271V36" stroke="white" stroke-linecap="round"/>
<path d="M24.5835 36H39.4057" stroke="white" stroke-linecap="round"/>
<path d="M11.72 24.26C11.72 24.2067 11.7333 24.14 11.76 24.06L13.12 20.46H12.3C11.94 20.46 11.76 20.2067 11.76 19.7C11.76 19.5 11.8067 19.3333 11.9 19.2C11.9933 19.0533 12.1267 18.98 12.3 18.98H13.68L16.46 11.7C16.5667 11.4867 16.7133 11.32 16.9 11.2C17.0867 11.0667 17.2533 11 17.4 11C17.5467 11 17.7133 11.0667 17.9 11.2C18.0867 11.3333 18.2267 11.5 18.32 11.7L21.1 18.98H22.4C22.5733 18.98 22.7067 19.0533 22.8 19.2C22.9067 19.3467 22.96 19.52 22.96 19.72C22.96 20.2133 22.7733 20.46 22.4 20.46H21.68L23.06 24.06C23.0867 24.14 23.1 24.2067 23.1 24.26C23.1 24.46 23 24.6333 22.8 24.78C22.6 24.9267 22.4 25 22.2 25C21.9867 25 21.8267 24.9 21.72 24.7L20.1 20.46H14.72L13.1 24.7C12.9933 24.9 12.8333 25 12.62 25C12.42 25 12.22 24.9267 12.02 24.78C11.82 24.6333 11.72 24.46 11.72 24.26ZM15.28 18.98H19.52L17.4 13.4L15.28 18.98Z" fill="white"/>
</svg>
