{
  "header": {
    "title": "Běží liška k táboru",
    "img": "kockalezedirou.png",
    "format": 1,
    "numTracks": 1,
    "ticksPerBeat": 480
  },

  "tracks": [
    {
      "events": [
        {
          "duration": 0.3,
          "durationTicks": 144,
          "midi": 55,
          "note": "C4",
          "ticks": 0,
          "time": 3.0,
          "velocity": 0.7
        },
        {
          "duration": 0.3,
          "durationTicks": 144,
          "midi": 57,
          "note": "E4",
          "ticks": 144,
          "time": 3.92,
          "velocity": 0.7
        },
        {
          "duration": 0.3,
          "durationTicks": 144,
          "midi": 59,
          "note": "C4",
          "ticks": 288,
          "time": 4.84,
          "velocity": 0.7
        },
        {
          "duration": 0.3,
          "durationTicks": 144,
          "midi": 57,
          "note": "E4",
          "ticks": 432,
          "time": 5.76,
          "velocity": 0.7
        },
        {
          "duration": 0.6,
          "durationTicks": 288,
          "midi": 55,
          "note": "G4",
          "ticks": 576,
          "time": 6.68,
          "velocity": 0.7
        },
        {
          "duration": 0.3,
          "durationTicks": 144,
          "midi": 55,
          "note": "G4",
          "ticks": 720,
          "time": 8.52,
          "velocity": 0.7
        },
        {
          "duration": 0.3,
          "durationTicks": 144,
          "midi": 57,
          "note": "G4",
          "ticks": 864,
          "time": 9.44,
          "velocity": 0.7
        },
        {
          "duration": 0.3,
          "durationTicks": 144,
          "midi": 59,
          "note": "C4",
          "ticks": 1008,
          "time": 10.36,
          "velocity": 0.7
        },
        {
          "duration": 0.3,
          "durationTicks": 144,
          "midi": 55,
          "note": "E4",
          "ticks": 1152,
          "time": 11.28,
          "velocity": 0.7
        },
        {
          "duration": 0.6,
          "durationTicks": 288,
          "midi": 55,
          "note": "C4",
          "ticks": 1296,
          "time": 12.2,
          "velocity": 0.7
        },
        {
          "duration": 0.6,
          "durationTicks": 288,
          "midi": 55,
          "note": "E4",
          "ticks": 1296,
          "time": 13.12,
          "velocity": 0.7
        },
        {
          "duration": 0.6,
          "durationTicks": 288,
          "midi": 55,
          "note": "D4",
          "ticks": 1296,
          "time": 14.04,
          "velocity": 0.7
        },
        {
          "duration": 0.3,
          "durationTicks": 144,
          "midi": 55,
          "note": "D4",
          "ticks": 0,
          "time": 15.88,
          "velocity": 0.7
        },
        {
          "duration": 0.3,
          "durationTicks": 144,
          "midi": 57,
          "note": "D4",
          "ticks": 144,
          "time": 16.8,
          "velocity": 0.7
        },
        {
          "duration": 0.3,
          "durationTicks": 144,
          "midi": 59,
          "note": "C4",
          "ticks": 288,
          "time": 17.72,
          "velocity": 0.7
        },
        {
          "duration": 0.3,
          "durationTicks": 144,
          "midi": 57,
          "note": "E4",
          "ticks": 432,
          "time": 18.64,
          "velocity": 0.7
        },
        {
          "duration": 0.6,
          "durationTicks": 288,
          "midi": 55,
          "note": "G4",
          "ticks": 576,
          "time": 19.56,
          "velocity": 0.7
        },
        {
          "duration": 0.3,
          "durationTicks": 144,
          "midi": 55,
          "note": "E4",
          "ticks": 720,
          "time": 20.48,
          "velocity": 0.7
        },
        {
          "duration": 0.3,
          "durationTicks": 144,
          "midi": 57,
          "note": "D4",
          "ticks": 864,
          "time": 21.4,
          "velocity": 0.7
        },
        {
          "duration": 0.3,
          "durationTicks": 144,
          "midi": 59,
          "note": "D4",
          "ticks": 1008,
          "time": 22.32,
          "velocity": 0.7
        },
        {
          "duration": 0.3,
          "durationTicks": 144,
          "midi": 55,
          "note": "E4",
          "ticks": 1152,
          "time": 23.24,
          "velocity": 0.7
        },
        {
          "duration": 0.6,
          "durationTicks": 288,
          "midi": 55,
          "note": "C4",
          "ticks": 1296,
          "time": 25.08,
          "velocity": 0.7
        },
        {
          "duration": 0.6,
          "durationTicks": 288,
          "midi": 55,
          "note": "E4",
          "ticks": 1296,
          "time": 26.0,
          "velocity": 0.7
        },
        {
          "duration": 0.6,
          "durationTicks": 288,
          "midi": 55,
          "note": "G4",
          "ticks": 1296,
          "time": 26.92,
          "velocity": 0.7
        },
        {
          "duration": 0.6,
          "durationTicks": 288,
          "midi": 55,
          "note": "E4",
          "ticks": 1296,
          "time": 27.84,
          "velocity": 0.7
        },
        {
          "duration": 0.6,
          "durationTicks": 288,
          "midi": 55,
          "note": "D4",
          "ticks": 576,
          "time": 28.76,
          "velocity": 0.7
        },
        {
          "duration": 0.3,
          "durationTicks": 144,
          "midi": 55,
          "note": "D4",
          "ticks": 720,
          "time": 29.68,
          "velocity": 0.7
        },
        {
          "duration": 0.3,
          "durationTicks": 144,
          "midi": 57,
          "note": "C4",
          "ticks": 864,
          "time": 30.6,
          "velocity": 0.7
        }
      ]
    }
  ]
}
