<svg width="42" height="43" viewBox="0 0 42 43" fill="none" xmlns="http://www.w3.org/2000/svg">
<path d="M38.5 18V16.25C38.5 7.5 35 4 26.25 4H15.75C7 4 3.5 7.5 3.5 16.25V26.75C3.5 35.5 7 39 15.75 39H19.25" stroke="white" stroke-width="4" stroke-linecap="round" stroke-linejoin="round"/>
<path d="M26.7224 39C28.1142 39 29.2424 37.8717 29.2424 36.48C29.2424 35.0882 28.1142 33.96 26.7224 33.96C25.3306 33.96 24.2024 35.0882 24.2024 36.48C24.2024 37.8717 25.3306 39 26.7224 39Z" stroke="white" stroke-width="2" stroke-linecap="round" stroke-linejoin="round"/>
<path d="M38.4999 34.8V24.9301C38.4999 22.8301 37.1874 22.5326 35.8399 22.9001L30.7824 24.2826C29.8724 24.5276 29.2249 25.2626 29.2249 26.3126V28.0801V29.2701V36.4976" stroke="white" stroke-width="2" stroke-linecap="round" stroke-linejoin="round"/>
<path d="M35.98 37.32C37.3717 37.32 38.5 36.1918 38.5 34.8C38.5 33.4083 37.3717 32.28 35.98 32.28C34.5882 32.28 33.46 33.4083 33.46 34.8C33.46 36.1918 34.5882 37.32 35.98 37.32Z" stroke="white" stroke-width="2" stroke-linecap="round" stroke-linejoin="round"/>
<path d="M29.2424 29.2524L38.4999 26.7324" stroke="white" stroke-width="2" stroke-linecap="round" stroke-linejoin="round"/>
<path d="M13.7598 22.86C13.7598 21.0733 14.4598 19.5333 15.8598 18.24C17.2598 16.9467 18.8464 16.3 20.6198 16.3C21.7264 16.3 22.6931 16.6933 23.5198 17.48V12.02C23.5198 11.6733 23.7598 11.5 24.2398 11.5C24.7464 11.5 24.9998 11.6733 24.9998 12.02V25.94C24.9998 26.3133 24.7531 26.5 24.2598 26.5C24.0598 26.5 23.8864 26.4533 23.7398 26.36C23.5931 26.2533 23.5198 26.1133 23.5198 25.94V22.68C22.4398 24.08 21.4064 25.0933 20.4198 25.72C19.4464 26.3467 18.4398 26.66 17.3998 26.66C16.4398 26.66 15.5931 26.2733 14.8598 25.5C14.1264 24.7133 13.7598 23.8333 13.7598 22.86ZM15.1998 22.9C15.1998 23.66 15.4664 24.24 15.9998 24.64C16.5331 25.0267 17.0998 25.22 17.6998 25.22C18.3931 25.22 19.1864 24.88 20.0798 24.2C20.9731 23.5067 21.7131 22.74 22.2998 21.9C22.8998 21.0467 23.1998 20.38 23.1998 19.9C23.1998 19.5 23.0798 19.1467 22.8398 18.84C22.6131 18.52 22.3264 18.2867 21.9798 18.14C21.6464 17.9933 21.3398 17.8867 21.0598 17.82C20.7798 17.74 20.5464 17.7 20.3598 17.7C19.0531 17.7 17.8664 18.2267 16.7998 19.28C15.7331 20.32 15.1998 21.5267 15.1998 22.9Z" fill="white"/>
</svg>
