<svg width="43" height="43" viewBox="0 0 43 43" fill="none" xmlns="http://www.w3.org/2000/svg">
<path d="M39.5 18.5V16.75C39.5 8 36 4.5 27.25 4.5H16.75C8 4.5 4.5 8 4.5 16.75V27.25C4.5 36 8 39.5 16.75 39.5H20.25" stroke="white" stroke-width="4" stroke-linecap="round" stroke-linejoin="round"/>
<path d="M27.7224 39.5C29.1142 39.5 30.2424 38.3717 30.2424 36.98C30.2424 35.5882 29.1142 34.46 27.7224 34.46C26.3306 34.46 25.2024 35.5882 25.2024 36.98C25.2024 38.3717 26.3306 39.5 27.7224 39.5Z" stroke="white" stroke-width="2" stroke-linecap="round" stroke-linejoin="round"/>
<path d="M39.4999 35.3V25.4301C39.4999 23.3301 38.1874 23.0326 36.8399 23.4001L31.7824 24.7826C30.8724 25.0276 30.2249 25.7626 30.2249 26.8126V28.5801V29.7701V36.9976" stroke="white" stroke-width="2" stroke-linecap="round" stroke-linejoin="round"/>
<path d="M36.98 37.82C38.3717 37.82 39.5 36.6918 39.5 35.3C39.5 33.9083 38.3717 32.78 36.98 32.78C35.5882 32.78 34.46 33.9083 34.46 35.3C34.46 36.6918 35.5882 37.82 36.98 37.82Z" stroke="white" stroke-width="2" stroke-linecap="round" stroke-linejoin="round"/>
<path d="M30.2424 29.7524L39.4999 27.2324" stroke="white" stroke-width="2" stroke-linecap="round" stroke-linejoin="round"/>
<path d="M14.7598 23.36C14.7598 21.5733 15.4598 20.0333 16.8598 18.74C18.2598 17.4467 19.8464 16.8 21.6198 16.8C22.7264 16.8 23.6931 17.1933 24.5198 17.98V12.52C24.5198 12.1733 24.7598 12 25.2398 12C25.7464 12 25.9998 12.1733 25.9998 12.52V26.44C25.9998 26.8133 25.7531 27 25.2598 27C25.0598 27 24.8864 26.9533 24.7398 26.86C24.5931 26.7533 24.5198 26.6133 24.5198 26.44V23.18C23.4398 24.58 22.4064 25.5933 21.4198 26.22C20.4464 26.8467 19.4398 27.16 18.3998 27.16C17.4398 27.16 16.5931 26.7733 15.8598 26C15.1264 25.2133 14.7598 24.3333 14.7598 23.36ZM16.1998 23.4C16.1998 24.16 16.4664 24.74 16.9998 25.14C17.5331 25.5267 18.0998 25.72 18.6998 25.72C19.3931 25.72 20.1864 25.38 21.0798 24.7C21.9731 24.0067 22.7131 23.24 23.2998 22.4C23.8998 21.5467 24.1998 20.88 24.1998 20.4C24.1998 20 24.0798 19.6467 23.8398 19.34C23.6131 19.02 23.3264 18.7867 22.9798 18.64C22.6464 18.4933 22.3398 18.3867 22.0598 18.32C21.7798 18.24 21.5464 18.2 21.3598 18.2C20.0531 18.2 18.8664 18.7267 17.7998 19.78C16.7331 20.82 16.1998 22.0267 16.1998 23.4Z" fill="white"/>
<line x1="1.93934" y1="41.9393" x2="41.9393" y2="1.93934" stroke="#FF5151" stroke-width="3"/>
</svg>
