<svg width="44" height="44" viewBox="0 0 44 44" fill="none" xmlns="http://www.w3.org/2000/svg">
<path d="M21.482 18.2311L20.491 18.3651L21.482 18.2311ZM26.7262 9.92357L25.7488 10.1351L25.7489 10.1351L26.7262 9.92357ZM30.6822 19.6154V18.6154H29.6528L29.6826 19.6444L30.6822 19.6154ZM35.1772 19.6154L36.1768 19.6444L36.2066 18.6154H35.1772V19.6154ZM31.205 37.6525L32.2046 37.6235L31.205 37.6525ZM34.6544 37.6525L35.654 37.6814L34.6544 37.6525ZM29.018 11.1853L28.2916 10.4981L29.018 11.1853ZM37.9639 23.0769L36.9865 23.2884C37.6298 26.2608 36.0596 29.7327 33.0181 32.5557C30.0032 35.354 25.743 37.3077 21.482 37.3077V38.3077V39.3077C26.3236 39.3077 31.0536 37.1078 34.3786 34.0216C37.677 30.9601 39.7964 26.8166 38.9413 22.8654L37.9639 23.0769ZM21.482 38.3077V37.3077C12.8557 37.3077 6 30.8635 6 23.0769H5H4C4 32.1138 11.9027 39.3077 21.482 39.3077V38.3077ZM5 23.0769H6C6 15.2903 12.8557 8.84614 21.482 8.84614V7.84614V6.84614C11.9027 6.84614 4 14.04 4 23.0769H5ZM21.482 18.2311L20.491 18.3651C20.619 19.3114 21.0582 20.0501 21.758 20.5559C22.4183 21.0333 23.2345 21.2484 24.0452 21.3442C25.6408 21.5329 27.6772 21.2978 29.5318 21.1305C31.4763 20.9552 33.2643 20.8469 34.6448 21.1539C35.3171 21.3034 35.8287 21.5392 36.1995 21.8621C36.5572 22.1737 36.8408 22.615 36.9865 23.2884L37.9639 23.0769L38.9413 22.8654C38.7125 21.808 38.2235 20.9728 37.513 20.354C36.8157 19.7466 35.9634 19.3982 35.0789 19.2015C33.3456 18.8162 31.2473 18.9677 29.3522 19.1386C27.3673 19.3176 25.611 19.5154 24.28 19.3581C23.6275 19.2809 23.197 19.1283 22.9297 18.9351C22.7017 18.7703 22.5322 18.5354 22.4729 18.097L21.482 18.2311ZM21.482 7.84614V8.84614C22.6622 8.84614 23.7465 8.91309 24.5589 9.15871C25.3587 9.40053 25.6619 9.73325 25.7488 10.1351L26.7262 9.92357L27.7036 9.71206C27.3962 8.29162 26.2667 7.58563 25.1377 7.24429C24.0213 6.90677 22.6806 6.84614 21.482 6.84614V7.84614ZM26.7262 9.92357L25.7489 10.1351C25.8629 10.6619 25.7306 11.2239 25.3306 11.8815C24.9237 12.5504 24.2991 13.2193 23.5877 13.9091C22.9182 14.5583 22.1157 15.2751 21.547 15.912C21.2543 16.2398 20.9732 16.5992 20.7741 16.9803C20.5749 17.3618 20.4197 17.8383 20.491 18.3651L21.482 18.2311L22.4729 18.097C22.4767 18.125 22.4582 18.0761 22.5469 17.9062C22.6358 17.736 22.794 17.5183 23.0388 17.2441C23.5451 16.6771 24.211 16.0906 24.98 15.3449C25.707 14.64 26.4909 13.8223 27.0393 12.9209C27.5945 12.0081 27.9641 10.9157 27.7036 9.71201L26.7262 9.92357ZM15.6986 16.1538H14.6986C14.6986 16.6757 14.2158 17.2308 13.451 17.2308V18.2308V19.2308C15.1688 19.2308 16.6986 17.926 16.6986 16.1538H15.6986ZM13.451 18.2308V17.2308C12.6862 17.2308 12.2035 16.6757 12.2035 16.1538H11.2035H10.2035C10.2035 17.926 11.7333 19.2308 13.451 19.2308V18.2308ZM11.2035 16.1538H12.2035C12.2035 15.6319 12.6862 15.0769 13.451 15.0769V14.0769V13.0769C11.7333 13.0769 10.2035 14.3816 10.2035 16.1538H11.2035ZM13.451 14.0769V15.0769C14.2158 15.0769 14.6986 15.6319 14.6986 16.1538H15.6986H16.6986C16.6986 14.3816 15.1688 13.0769 13.451 13.0769V14.0769ZM12.7018 23.0769H11.7018C11.7018 23.5988 11.2191 24.1538 10.4543 24.1538V25.1538V26.1538C12.1721 26.1538 13.7018 24.8491 13.7018 23.0769H12.7018ZM10.4543 25.1538V24.1538C9.6895 24.1538 9.20676 23.5988 9.20676 23.0769H8.20676H7.20676C7.20676 24.8491 8.73654 26.1538 10.4543 26.1538V25.1538ZM8.20676 23.0769H9.20676C9.20676 22.555 9.6895 22 10.4543 22V21V20C8.73654 20 7.20676 21.3047 7.20676 23.0769H8.20676ZM10.4543 21V22C11.2191 22 11.7018 22.555 11.7018 23.0769H12.7018H13.7018C13.7018 21.3047 12.1721 20 10.4543 20V21ZM15.6986 30H14.6986C14.6986 30.5219 14.2158 31.0769 13.451 31.0769V32.0769V33.0769C15.1688 33.0769 16.6986 31.7722 16.6986 30H15.6986ZM13.451 32.0769V31.0769C12.6862 31.0769 12.2035 30.5219 12.2035 30H11.2035H10.2035C10.2035 31.7722 11.7333 33.0769 13.451 33.0769V32.0769ZM11.2035 30H12.2035C12.2035 29.4781 12.6862 28.9231 13.451 28.9231V27.9231V26.9231C11.7333 26.9231 10.2035 28.2278 10.2035 30H11.2035ZM13.451 27.9231V28.9231C14.2158 28.9231 14.6986 29.4781 14.6986 30H15.6986H16.6986C16.6986 28.2278 15.1688 26.9231 13.451 26.9231V27.9231ZM23.1904 32.7692H22.1904C22.1904 33.2911 21.7076 33.8462 20.9428 33.8462V34.8462V35.8462C22.6606 35.8462 24.1904 34.5414 24.1904 32.7692H23.1904ZM20.9428 34.8462V33.8462C20.178 33.8462 19.6953 33.2911 19.6953 32.7692H18.6953H17.6953C17.6953 34.5414 19.2251 35.8462 20.9428 35.8462V34.8462ZM18.6953 32.7692H19.6953C19.6953 32.2473 20.178 31.6923 20.9428 31.6923V30.6923V29.6923C19.2251 29.6923 17.6953 30.997 17.6953 32.7692H18.6953ZM20.9428 30.6923V31.6923C21.7076 31.6923 22.1904 32.2473 22.1904 32.7692H23.1904H24.1904C24.1904 30.997 22.6606 29.6923 20.9428 29.6923V30.6923ZM30.6822 31.3846H29.6822C29.6822 31.9065 29.1994 32.4615 28.4346 32.4615V33.4615V34.4615C30.1524 34.4615 31.6822 33.1568 31.6822 31.3846H30.6822ZM28.4346 33.4615V32.4615C27.6698 32.4615 27.1871 31.9065 27.1871 31.3846H26.1871H25.1871C25.1871 33.1568 26.7169 34.4615 28.4346 34.4615V33.4615ZM26.1871 31.3846H27.1871C27.1871 30.8627 27.6698 30.3077 28.4346 30.3077V29.3077V28.3077C26.7169 28.3077 25.1871 29.6124 25.1871 31.3846H26.1871ZM28.4346 29.3077V30.3077C29.1994 30.3077 29.6822 30.8627 29.6822 31.3846H30.6822H31.6822C31.6822 29.6124 30.1524 28.3077 28.4346 28.3077V29.3077ZM30.6822 19.6154V20.6154H35.1772V19.6154V18.6154H30.6822V19.6154ZM35.1772 19.6154L34.1777 19.5864L33.6548 37.6235L34.6544 37.6525L35.654 37.6814L36.1768 19.6444L35.1772 19.6154ZM33.1566 39V38H32.7028V39V40H33.1566V39ZM31.205 37.6525L32.2046 37.6235L31.6817 19.5864L30.6822 19.6154L29.6826 19.6444L30.2054 37.6814L31.205 37.6525ZM32.7028 39V38C32.3594 38 32.2086 37.763 32.2046 37.6235L31.205 37.6525L30.2054 37.6814C30.2448 39.0419 31.4225 40 32.7028 40V39ZM34.6544 37.6525L33.6548 37.6235C33.6508 37.763 33.5 38 33.1566 38V39V40C34.437 40 35.6146 39.0419 35.654 37.6814L34.6544 37.6525ZM39 14.4673H38C38 15.4735 37.4631 16.4574 36.5281 17.2206C35.5933 17.9836 34.3359 18.4567 33.0845 18.4567V19.4567V20.4567C34.815 20.4567 36.5153 19.8128 37.7928 18.77C39.0701 17.7275 40 16.2168 40 14.4673H39ZM33.0845 19.4567V18.4567C30.5792 18.4567 28.6854 16.5978 28.6854 14.4674H27.6854H26.6854C26.6854 17.8481 29.6262 20.4567 33.0845 20.4567V19.4567ZM27.6854 14.4674H28.6854C28.6854 13.486 29.0763 12.5789 29.7445 11.8725L29.018 11.1853L28.2916 10.4981C27.3001 11.5463 26.6854 12.9354 26.6854 14.4674H27.6854ZM29.018 11.1853L29.7445 11.8725C33.1055 8.3193 33.3582 5.71747 32.661 3.96362C32.3393 3.15449 31.8468 2.63996 31.7065 2.47678C31.6895 2.45704 31.6913 2.45831 31.7001 2.47008C31.7051 2.47674 31.7188 2.49538 31.7357 2.52289C31.7504 2.54692 31.7833 2.60291 31.8125 2.68224C31.8383 2.75233 31.8912 2.91929 31.8643 3.13691C31.832 3.39794 31.6946 3.64465 31.4706 3.80985C31.2829 3.94827 31.0989 3.98197 31.0179 3.99239C30.9275 4.00401 30.8576 3.99954 30.8272 3.99695C30.7421 3.9897 30.7012 3.97104 30.8093 4.00316C30.8856 4.02582 30.991 4.0595 31.1483 4.10963L31.4519 3.15681L31.7555 2.204C31.6086 2.15721 31.479 2.11573 31.3789 2.08598C31.3106 2.06569 31.1518 2.01736 30.997 2.00417C30.949 2.00009 30.8647 1.99562 30.7627 2.00873C30.6701 2.02065 30.4773 2.05734 30.2835 2.20026C30.0534 2.36996 29.9126 2.62269 29.8794 2.89126C29.8515 3.11643 29.906 3.29246 29.9357 3.37317C29.9931 3.52928 30.0785 3.64113 30.0983 3.66767C30.1323 3.71313 30.1673 3.7544 30.1903 3.78108C30.3693 3.98919 30.6252 4.25663 30.8025 4.70248C31.103 5.45857 31.3558 7.2587 28.2916 10.4981L29.018 11.1853ZM31.4519 3.15681L31.1483 4.10963C31.5894 4.25015 32.2538 4.62415 33.029 5.25151C33.7893 5.86683 34.603 6.6829 35.3486 7.64378C36.8517 9.58119 38 12.0038 38 14.4673H39H40C40 11.4054 38.5911 8.5604 36.9287 6.41778C36.0915 5.33865 35.1703 4.41159 34.2872 3.69685C33.4189 2.99416 32.5313 2.45118 31.7555 2.204L31.4519 3.15681Z" fill="white"/>
<path d="M2 42.001L42.001 1.99995" stroke="#FF5151" stroke-width="3"/>
</svg>
