<svg width="42" height="42" viewBox="0 0 42 42" fill="none" xmlns="http://www.w3.org/2000/svg">
<path d="M20.482 17.2311L19.491 17.3651L20.482 17.2311ZM25.7262 8.92357L24.7488 9.13507L24.7489 9.13513L25.7262 8.92357ZM29.6822 18.6154V17.6154H28.6528L28.6826 18.6444L29.6822 18.6154ZM34.1772 18.6154L35.1768 18.6444L35.2066 17.6154H34.1772V18.6154ZM30.205 36.6525L31.2046 36.6235L30.205 36.6525ZM33.6544 36.6525L34.654 36.6814L33.6544 36.6525ZM28.018 10.1853L27.2916 9.49813L28.018 10.1853ZM36.9639 22.0769L35.9865 22.2884C36.6298 25.2608 35.0596 28.7327 32.0181 31.5557C29.0032 34.354 24.743 36.3077 20.482 36.3077V37.3077V38.3077C25.3236 38.3077 30.0536 36.1078 33.3786 33.0216C36.677 29.9601 38.7964 25.8166 37.9413 21.8654L36.9639 22.0769ZM20.482 37.3077V36.3077C11.8557 36.3077 5 29.8635 5 22.0769H4H3C3 31.1138 10.9027 38.3077 20.482 38.3077V37.3077ZM4 22.0769H5C5 14.2903 11.8557 7.84614 20.482 7.84614V6.84614V5.84614C10.9027 5.84614 3 13.04 3 22.0769H4ZM20.482 17.2311L19.491 17.3651C19.619 18.3114 20.0582 19.0501 20.758 19.5559C21.4183 20.0333 22.2345 20.2484 23.0452 20.3442C24.6408 20.5329 26.6772 20.2978 28.5318 20.1305C30.4763 19.9552 32.2643 19.8469 33.6448 20.1539C34.3171 20.3034 34.8287 20.5392 35.1995 20.8621C35.5572 21.1737 35.8408 21.615 35.9865 22.2884L36.9639 22.0769L37.9413 21.8654C37.7125 20.808 37.2235 19.9728 36.513 19.354C35.8157 18.7466 34.9634 18.3982 34.0789 18.2015C32.3456 17.8162 30.2473 17.9677 28.3522 18.1386C26.3673 18.3176 24.611 18.5154 23.28 18.3581C22.6275 18.2809 22.197 18.1283 21.9297 17.9351C21.7017 17.7703 21.5322 17.5354 21.4729 17.097L20.482 17.2311ZM20.482 6.84614V7.84614C21.6622 7.84614 22.7465 7.91309 23.5589 8.15871C24.3587 8.40053 24.6619 8.73325 24.7488 9.13507L25.7262 8.92357L26.7036 8.71206C26.3962 7.29162 25.2667 6.58563 24.1377 6.24429C23.0213 5.90677 21.6806 5.84614 20.482 5.84614V6.84614ZM25.7262 8.92357L24.7489 9.13513C24.8629 9.66191 24.7306 10.2239 24.3306 10.8815C23.9237 11.5504 23.2991 12.2193 22.5877 12.9091C21.9182 13.5583 21.1157 14.2751 20.547 14.912C20.2543 15.2398 19.9732 15.5992 19.7741 15.9803C19.5749 16.3618 19.4197 16.8383 19.491 17.3651L20.482 17.2311L21.4729 17.097C21.4767 17.125 21.4582 17.0761 21.5469 16.9062C21.6358 16.736 21.794 16.5183 22.0388 16.2441C22.5451 15.6771 23.211 15.0906 23.98 14.3449C24.707 13.64 25.4909 12.8223 26.0393 11.9209C26.5945 11.0081 26.9641 9.91574 26.7036 8.71201L25.7262 8.92357ZM14.6986 15.1538H13.6986C13.6986 15.6757 13.2158 16.2308 12.451 16.2308V17.2308V18.2308C14.1688 18.2308 15.6986 16.926 15.6986 15.1538H14.6986ZM12.451 17.2308V16.2308C11.6862 16.2308 11.2035 15.6757 11.2035 15.1538H10.2035H9.20348C9.20348 16.926 10.7333 18.2308 12.451 18.2308V17.2308ZM10.2035 15.1538H11.2035C11.2035 14.6319 11.6862 14.0769 12.451 14.0769V13.0769V12.0769C10.7333 12.0769 9.20348 13.3816 9.20348 15.1538H10.2035ZM12.451 13.0769V14.0769C13.2158 14.0769 13.6986 14.6319 13.6986 15.1538H14.6986H15.6986C15.6986 13.3816 14.1688 12.0769 12.451 12.0769V13.0769ZM11.7018 22.0769H10.7018C10.7018 22.5988 10.2191 23.1538 9.4543 23.1538V24.1538V25.1538C11.1721 25.1538 12.7018 23.8491 12.7018 22.0769H11.7018ZM9.4543 24.1538V23.1538C8.6895 23.1538 8.20676 22.5988 8.20676 22.0769H7.20676H6.20676C6.20676 23.8491 7.73654 25.1538 9.4543 25.1538V24.1538ZM7.20676 22.0769H8.20676C8.20676 21.555 8.6895 21 9.4543 21V20V19C7.73654 19 6.20676 20.3047 6.20676 22.0769H7.20676ZM9.4543 20V21C10.2191 21 10.7018 21.555 10.7018 22.0769H11.7018H12.7018C12.7018 20.3047 11.1721 19 9.4543 19V20ZM14.6986 29H13.6986C13.6986 29.5219 13.2158 30.0769 12.451 30.0769V31.0769V32.0769C14.1688 32.0769 15.6986 30.7722 15.6986 29H14.6986ZM12.451 31.0769V30.0769C11.6862 30.0769 11.2035 29.5219 11.2035 29H10.2035H9.20348C9.20348 30.7722 10.7333 32.0769 12.451 32.0769V31.0769ZM10.2035 29H11.2035C11.2035 28.4781 11.6862 27.9231 12.451 27.9231V26.9231V25.9231C10.7333 25.9231 9.20348 27.2278 9.20348 29H10.2035ZM12.451 26.9231V27.9231C13.2158 27.9231 13.6986 28.4781 13.6986 29H14.6986H15.6986C15.6986 27.2278 14.1688 25.9231 12.451 25.9231V26.9231ZM22.1904 31.7692H21.1904C21.1904 32.2911 20.7076 32.8462 19.9428 32.8462V33.8462V34.8462C21.6606 34.8462 23.1904 33.5414 23.1904 31.7692H22.1904ZM19.9428 33.8462V32.8462C19.178 32.8462 18.6953 32.2911 18.6953 31.7692H17.6953H16.6953C16.6953 33.5414 18.2251 34.8462 19.9428 34.8462V33.8462ZM17.6953 31.7692H18.6953C18.6953 31.2473 19.178 30.6923 19.9428 30.6923V29.6923V28.6923C18.2251 28.6923 16.6953 29.997 16.6953 31.7692H17.6953ZM19.9428 29.6923V30.6923C20.7076 30.6923 21.1904 31.2473 21.1904 31.7692H22.1904H23.1904C23.1904 29.997 21.6606 28.6923 19.9428 28.6923V29.6923ZM29.6822 30.3846H28.6822C28.6822 30.9065 28.1994 31.4615 27.4346 31.4615V32.4615V33.4615C29.1524 33.4615 30.6822 32.1568 30.6822 30.3846H29.6822ZM27.4346 32.4615V31.4615C26.6698 31.4615 26.1871 30.9065 26.1871 30.3846H25.1871H24.1871C24.1871 32.1568 25.7169 33.4615 27.4346 33.4615V32.4615ZM25.1871 30.3846H26.1871C26.1871 29.8627 26.6698 29.3077 27.4346 29.3077V28.3077V27.3077C25.7169 27.3077 24.1871 28.6124 24.1871 30.3846H25.1871ZM27.4346 28.3077V29.3077C28.1994 29.3077 28.6822 29.8627 28.6822 30.3846H29.6822H30.6822C30.6822 28.6124 29.1524 27.3077 27.4346 27.3077V28.3077ZM29.6822 18.6154V19.6154H34.1772V18.6154V17.6154H29.6822V18.6154ZM34.1772 18.6154L33.1777 18.5864L32.6548 36.6235L33.6544 36.6525L34.654 36.6814L35.1768 18.6444L34.1772 18.6154ZM32.1566 38V37H31.7028V38V39H32.1566V38ZM30.205 36.6525L31.2046 36.6235L30.6817 18.5864L29.6822 18.6154L28.6826 18.6444L29.2054 36.6814L30.205 36.6525ZM31.7028 38V37C31.3594 37 31.2086 36.763 31.2046 36.6235L30.205 36.6525L29.2054 36.6814C29.2448 38.0419 30.4225 39 31.7028 39V38ZM33.6544 36.6525L32.6548 36.6235C32.6508 36.763 32.5 37 32.1566 37V38V39C33.437 39 34.6146 38.0419 34.654 36.6814L33.6544 36.6525ZM38 13.4673H37C37 14.4735 36.4631 15.4574 35.5281 16.2206C34.5933 16.9836 33.3359 17.4567 32.0845 17.4567V18.4567V19.4567C33.815 19.4567 35.5153 18.8128 36.7928 17.77C38.0701 16.7275 39 15.2168 39 13.4673H38ZM32.0845 18.4567V17.4567C29.5792 17.4567 27.6854 15.5978 27.6854 13.4674H26.6854H25.6854C25.6854 16.8481 28.6262 19.4567 32.0845 19.4567V18.4567ZM26.6854 13.4674H27.6854C27.6854 12.486 28.0763 11.5789 28.7445 10.8725L28.018 10.1853L27.2916 9.49813C26.3001 10.5463 25.6854 11.9354 25.6854 13.4674H26.6854ZM28.018 10.1853L28.7445 10.8725C32.1055 7.3193 32.3582 4.71747 31.661 2.96362C31.3393 2.15449 30.8468 1.63996 30.7065 1.47678C30.6895 1.45704 30.6913 1.45831 30.7001 1.47008C30.7051 1.47674 30.7188 1.49538 30.7357 1.52289C30.7504 1.54692 30.7833 1.60291 30.8125 1.68224C30.8383 1.75233 30.8912 1.91929 30.8643 2.13691C30.832 2.39794 30.6946 2.64465 30.4706 2.80985C30.2829 2.94827 30.0989 2.98197 30.0179 2.99239C29.9275 3.00401 29.8576 2.99954 29.8272 2.99695C29.7421 2.9897 29.7012 2.97104 29.8093 3.00316C29.8856 3.02582 29.991 3.0595 30.1483 3.10963L30.4519 2.15681L30.7555 1.204C30.6086 1.15721 30.479 1.11573 30.3789 1.08598C30.3106 1.06569 30.1518 1.01736 29.997 1.00417C29.949 1.00009 29.8647 0.995615 29.7627 1.00873C29.6701 1.02065 29.4773 1.05734 29.2835 1.20026C29.0534 1.36996 28.9126 1.62269 28.8794 1.89126C28.8515 2.11643 28.906 2.29246 28.9357 2.37317C28.9931 2.52928 29.0785 2.64113 29.0983 2.66767C29.1323 2.71313 29.1673 2.7544 29.1903 2.78108C29.3693 2.98919 29.6252 3.25663 29.8025 3.70248C30.103 4.45857 30.3558 6.2587 27.2916 9.49813L28.018 10.1853ZM30.4519 2.15681L30.1483 3.10963C30.5894 3.25015 31.2538 3.62415 32.029 4.25151C32.7893 4.86683 33.603 5.6829 34.3486 6.64378C35.8517 8.58119 37 11.0038 37 13.4673H38H39C39 10.4054 37.5911 7.5604 35.9287 5.41778C35.0915 4.33865 34.1703 3.41159 33.2872 2.69685C32.4189 1.99416 31.5313 1.45118 30.7555 1.204L30.4519 2.15681Z" fill="white"/>
</svg>
