<svg width="34" height="35" viewBox="0 0 34 35" fill="none" xmlns="http://www.w3.org/2000/svg">
<path d="M12.0015 32.8687V27.5017C12.0015 26.1417 13.1074 25.0367 14.4773 25.0282H19.5071C20.883 25.0282 21.9985 26.1356 21.9985 27.5017V32.8531C21.9984 34.0327 22.957 34.9914 24.1451 35H27.5767C29.1794 35.0041 30.7178 34.3749 31.8525 33.2512C32.9873 32.1276 33.625 30.6018 33.625 29.0107V13.7652C33.625 12.4799 33.0511 11.2607 32.0581 10.4361L20.4002 1.17997C18.3624 -0.439036 15.4519 -0.386736 13.4744 1.30442L2.06727 10.4361C1.0273 11.2364 0.405717 12.4592 0.375 13.7652V28.9951C0.375 32.3115 3.08292 35 6.4233 35H9.77651C10.3486 35.0041 10.8986 34.7814 11.3046 34.3812C11.7106 33.9811 11.9389 33.4366 11.9389 32.8687H12.0015Z" fill="white"/>
</svg>
