<svg width="42" height="43" viewBox="0 0 42 43" fill="none" xmlns="http://www.w3.org/2000/svg">
<path d="M21 14.5C19.7602 14.4981 18.5597 14.9352 17.6112 15.7336C16.6627 16.5321 16.0274 17.6404 15.8177 18.8624C15.6081 20.0844 15.8378 21.3412 16.466 22.4101C17.0942 23.479 18.0804 24.2911 19.25 24.7025C19.2416 24.8015 19.2416 24.901 19.25 25V35.5C19.25 35.9641 19.4344 36.4092 19.7626 36.7374C20.0908 37.0656 20.5359 37.25 21 37.25C21.4641 37.25 21.9092 37.0656 22.2374 36.7374C22.5656 36.4092 22.75 35.9641 22.75 35.5V25C22.7584 24.901 22.7584 24.8015 22.75 24.7025C23.9196 24.2911 24.9058 23.479 25.534 22.4101C26.1622 21.3412 26.3919 20.0844 26.1823 18.8624C25.9726 17.6404 25.3373 16.5321 24.3888 15.7336C23.4403 14.9352 22.2398 14.4981 21 14.5ZM6.125 19.75C6.1728 17.9782 6.61177 16.2389 7.41048 14.6566C8.20918 13.0743 9.34787 11.6882 10.745 10.5975C11.1024 10.3005 11.3271 9.87361 11.3698 9.41086C11.4125 8.94811 11.2695 8.48737 10.9725 8.12999C10.8254 7.95304 10.6449 7.80678 10.4413 7.69958C10.2377 7.59238 10.015 7.52633 9.78587 7.50521C9.32312 7.46254 8.86238 7.60545 8.505 7.90249C6.71009 9.31985 5.25176 11.1175 4.23502 13.1662C3.21827 15.2148 2.6684 17.4634 2.625 19.75C2.6684 22.0366 3.21827 24.2852 4.23502 26.3338C5.25176 28.3824 6.71009 30.1801 8.505 31.5975C8.68196 31.7446 8.88615 31.8554 9.10592 31.9235C9.32569 31.9917 9.55674 32.0159 9.78587 31.9948C10.015 31.9737 10.2377 31.9076 10.4413 31.8004C10.6449 31.6932 10.8254 31.5469 10.9725 31.37C11.1196 31.193 11.2304 30.9888 11.2985 30.7691C11.3667 30.5493 11.3909 30.3183 11.3698 30.0891C11.3487 29.86 11.2826 29.6373 11.1754 29.4337C11.0682 29.2301 10.922 29.0496 10.745 28.9025C9.34787 27.8118 8.20918 26.4257 7.41048 24.8434C6.61177 23.2611 6.1728 21.5218 6.125 19.75Z" fill="white"/>
<path d="M29.12 11.4201C28.762 11.1822 28.3289 11.0844 27.9034 11.1453C27.4779 11.2062 27.0897 11.4216 26.8128 11.7504C26.536 12.0792 26.3898 12.4984 26.4022 12.928C26.4146 13.3577 26.5846 13.7678 26.88 14.0801C27.7448 14.757 28.4502 15.6158 28.9462 16.5956C29.4421 17.5755 29.7166 18.6524 29.75 19.7501C29.7166 20.8478 29.4421 21.9247 28.9462 22.9046C28.4502 23.8844 27.7448 24.7432 26.88 25.4201C26.6092 25.6516 26.4155 25.9603 26.3249 26.3048C26.2342 26.6494 26.2509 27.0134 26.3726 27.3482C26.4944 27.6831 26.7154 27.9727 27.0062 28.1786C27.297 28.3844 27.6437 28.4966 28 28.5001C28.4111 28.496 28.8076 28.3473 29.12 28.0801C30.3826 27.0844 31.4082 25.8205 32.1225 24.3799C32.8367 22.9392 33.2219 21.3578 33.25 19.7501C33.2219 18.1423 32.8367 16.5609 32.1225 15.1203C31.4082 13.6796 30.3826 12.4158 29.12 11.4201ZM15.33 11.6301C15.0313 11.2799 14.6067 11.0616 14.1481 11.0223C13.6895 10.983 13.2339 11.1259 12.88 11.4201C11.6174 12.4158 10.5918 13.6796 9.87752 15.1203C9.16325 16.5609 8.77812 18.1423 8.75 19.7501C8.77812 21.3578 9.16325 22.9392 9.87752 24.3799C10.5918 25.8205 11.6174 27.0844 12.88 28.0801C13.2339 28.3743 13.6895 28.5172 14.1481 28.4779C14.6067 28.4386 15.0313 28.2202 15.33 27.8701C15.6242 27.5162 15.7671 27.0606 15.7278 26.602C15.6885 26.1434 15.4701 25.7188 15.12 25.4201C14.2552 24.7432 13.5498 23.8844 13.0538 22.9046C12.5579 21.9247 12.2834 20.8478 12.25 19.7501C12.2834 18.6524 12.5579 17.5755 13.0538 16.5956C13.5498 15.6158 14.2552 14.757 15.12 14.0801C15.4701 13.7814 15.6885 13.3568 15.7278 12.8982C15.7671 12.4396 15.6242 11.984 15.33 11.6301Z" fill="white"/>
<path d="M33.495 7.90249C33.318 7.75541 33.1138 7.64462 32.8941 7.57646C32.6743 7.50829 32.4433 7.48408 32.2141 7.5052C31.985 7.52633 31.7623 7.59238 31.5587 7.69958C31.3551 7.80678 31.1746 7.95303 31.0275 8.12999C30.8804 8.30695 30.7696 8.51114 30.7015 8.73091C30.6333 8.95068 30.6091 9.18173 30.6302 9.41086C30.6513 9.63998 30.7174 9.86271 30.8246 10.0663C30.9318 10.2699 31.078 10.4504 31.255 10.5975C32.6521 11.6882 33.7908 13.0743 34.5895 14.6566C35.3882 16.2389 35.8272 17.9782 35.875 19.75C35.8272 21.5218 35.3882 23.2611 34.5895 24.8434C33.7908 26.4257 32.6521 27.8118 31.255 28.9025C30.8976 29.1995 30.6729 29.6264 30.6302 30.0891C30.5875 30.5519 30.7305 31.0126 31.0275 31.37C31.3245 31.7274 31.7514 31.9521 32.2141 31.9948C32.6769 32.0374 33.1376 31.8945 33.495 31.5975C35.2899 30.1801 36.7482 28.3824 37.765 26.3338C38.7817 24.2852 39.3316 22.0366 39.375 19.75C39.3316 17.4633 38.7817 15.2148 37.765 13.1662C36.7482 11.1175 35.2899 9.31984 33.495 7.90249Z" fill="white"/>
</svg>
